<?xml version="1.0" standalone="no"?>
<!DOCTYPE svg PUBLIC "-//W3C//DTD SVG 20010904//EN"
 "http://www.w3.org/TR/2001/REC-SVG-20010904/DTD/svg10.dtd">
<svg version="1.0" xmlns="http://www.w3.org/2000/svg"
 width="639.000000pt" height="390.000000pt" viewBox="0 0 639.000000 390.000000"
 preserveAspectRatio="xMidYMid meet">

<g transform="translate(0.000000,390.000000) scale(0.100000,-0.100000)"
fill="#1B5161" stroke="none">
<path d="M4260 3544 c-43 -20 -59 -23 -77 -15 -32 15 -94 -11 -116 -48 -15
-26 -21 -29 -55 -24 -27 4 -51 -1 -79 -16 -32 -16 -58 -20 -115 -19 -40 0 -78
5 -85 10 -10 8 -77 -7 -141 -33 -13 -5 -32 -9 -43 -9 -10 0 -27 -4 -37 -9 -9
-5 -38 -17 -63 -25 -39 -14 -51 -25 -74 -67 -20 -38 -37 -55 -64 -65 -126 -51
-191 -87 -206 -114 -27 -51 -51 -64 -116 -62 -53 2 -67 -1 -117 -32 -73 -44
-138 -70 -157 -62 -8 3 -15 16 -15 29 0 26 -39 66 -87 91 -17 9 -38 25 -46 36
-18 26 -33 11 -45 -46 -7 -32 -12 -39 -30 -37 -12 2 -45 -10 -74 -26 -76 -41
-135 -58 -151 -42 -9 10 -4 20 28 46 38 32 39 34 22 53 -10 11 -15 26 -11 36
9 23 -19 21 -40 -3 -10 -11 -29 -22 -43 -26 -14 -3 -36 -19 -50 -35 -29 -35
-86 -53 -128 -41 -36 9 -36 22 -4 107 32 86 25 98 -54 89 -53 -5 -67 -11 -94
-41 -18 -18 -33 -38 -33 -44 0 -6 21 -33 46 -60 25 -27 43 -53 40 -59 -3 -5
-36 -19 -74 -31 -37 -12 -104 -39 -149 -61 -63 -29 -84 -44 -89 -63 -9 -37 -1
-59 27 -75 23 -13 30 -12 70 6 99 47 116 41 153 -53 25 -66 26 -84 3 -84 -7 0
-21 -7 -31 -15 -19 -15 -19 -16 13 -49 45 -46 24 -54 -28 -10 -45 39 -48 39
-112 -1 l-42 -27 32 -25 32 -25 -22 -24 c-27 -29 -55 -31 -64 -5 -11 37 -39
52 -84 45 -35 -6 -45 -12 -61 -44 -33 -64 -90 -84 -90 -30 0 9 -9 33 -20 55
-11 22 -20 48 -20 58 0 18 -1 18 -27 -2 -46 -35 -186 -127 -220 -145 -18 -9
-41 -16 -53 -16 -20 0 -80 -26 -80 -35 0 -2 4 -15 10 -30 8 -20 6 -35 -10 -65
-11 -22 -20 -46 -20 -53 0 -25 -81 -117 -149 -168 -36 -28 -89 -79 -119 -114
-37 -45 -61 -65 -79 -67 -26 -3 -65 -49 -168 -198 -33 -48 -44 -100 -21 -100
22 0 92 -48 131 -90 17 -18 47 -43 67 -56 21 -13 38 -31 38 -40 0 -9 22 -25
54 -39 50 -22 56 -28 66 -67 7 -24 16 -53 21 -66 5 -13 9 -38 9 -57 0 -30 7
-40 55 -76 30 -23 55 -45 55 -50 0 -5 18 -27 40 -49 33 -33 44 -39 68 -34 24
5 32 1 54 -33 14 -21 42 -58 61 -81 30 -35 35 -47 27 -62 -6 -10 -10 -41 -10
-69 0 -39 4 -53 19 -61 46 -24 204 2 264 43 l29 19 34 -36 c34 -36 50 -44 56
-27 7 21 32 15 38 -9 4 -17 14 -26 30 -28 33 -5 60 -30 53 -49 -3 -8 6 -27 22
-43 25 -26 28 -36 29 -107 l1 -78 43 -13 c39 -13 42 -17 42 -48 0 -30 2 -33
18 -25 9 5 28 9 42 9 14 0 38 4 54 8 21 5 40 1 71 -16 57 -31 103 -22 164 33
74 68 79 71 96 57 11 -9 23 -5 61 24 37 28 56 36 90 36 34 0 48 6 71 30 33 35
63 40 63 10 0 -17 7 -20 42 -20 35 0 49 6 80 37 37 36 38 37 59 17 15 -13 23
-15 26 -7 9 26 63 92 95 116 18 14 96 57 173 97 138 71 159 87 169 141 8 38
60 105 106 135 22 15 64 31 93 35 59 10 72 22 81 80 7 46 26 57 58 35 12 -9
30 -16 39 -16 24 0 59 47 59 79 0 38 40 111 73 135 27 20 29 20 42 3 12 -17
18 -14 76 38 61 55 66 57 106 51 40 -5 46 -3 76 31 19 20 53 43 77 52 23 9 46
23 50 31 21 43 34 102 35 165 2 51 9 87 30 135 16 39 28 82 27 107 0 34 5 47
25 63 14 11 36 20 49 20 13 0 32 9 42 21 9 11 37 41 61 66 41 43 46 45 88 40
36 -4 46 -1 56 14 13 21 37 25 53 9 7 -7 21 1 45 25 69 72 156 105 218 84 29
-10 36 -9 59 10 51 41 116 81 132 81 11 0 20 -13 26 -37 8 -36 12 -38 51 -41
37 -3 45 1 74 32 31 35 62 46 73 27 11 -18 71 -18 120 1 30 11 63 17 80 13 22
-4 33 0 43 15 15 21 57 27 68 10 11 -18 26 -10 37 20 7 20 23 37 47 48 45 21
52 52 17 80 -46 36 -32 59 69 112 33 17 65 37 70 44 6 7 24 17 40 23 28 9 30
13 39 83 8 72 8 74 -18 93 -21 15 -24 22 -16 37 25 47 -6 87 -59 73 -17 -4
-21 -1 -21 17 0 19 -3 20 -15 10 -8 -6 -19 -9 -24 -6 -6 4 -20 1 -31 -6 -18
-11 -23 -10 -35 5 -10 15 -24 18 -57 15 -37 -3 -43 0 -46 18 -2 16 -10 21 -35
21 -18 0 -44 4 -59 8 -23 6 -29 3 -43 -24 -19 -38 -36 -32 -31 12 6 49 -10 61
-49 37 -18 -11 -40 -17 -49 -14 -10 4 -16 1 -16 -9 0 -9 -13 -17 -32 -20 -62
-10 -111 -26 -119 -38 -6 -10 -11 -10 -24 1 -14 12 -18 12 -26 -1 -5 -8 -9
-17 -9 -20 0 -9 -49 -29 -70 -29 -21 0 -40 16 -78 65 -21 26 -25 28 -44 16
-19 -12 -23 -11 -35 5 -12 17 -13 17 -13 -3 0 -30 -18 -38 -39 -19 -10 9 -45
20 -77 24 l-59 7 4 79 3 78 -41 -7 c-41 -7 -42 -7 -35 19 8 34 -16 62 -75 87
-35 16 -41 22 -31 33 9 12 8 20 -6 41 -14 21 -15 31 -6 45 9 15 7 30 -10 72
-29 72 -43 86 -101 103 -68 20 -83 19 -147 -11z"/>
</g>
</svg>
